<?xml version="1.0" standalone="no"?>
<!DOCTYPE svg PUBLIC "-//W3C//DTD SVG 20010904//EN"
 "http://www.w3.org/TR/2001/REC-SVG-20010904/DTD/svg10.dtd">
<svg version="1.0" xmlns="http://www.w3.org/2000/svg"
 width="43" height="43" viewBox="0 0 512.000000 512.000000"
 preserveAspectRatio="xMidYMid meet">
<metadata>
Created by potrace 1.16, written by Peter Selinger 2001-2019
</metadata>
<g transform="translate(0.000000,512.000000) scale(0.100000,-0.100000)"
fill="#ffffff" stroke="none">
<path d="M800 5086 c19 -18 134 -125 255 -237 441 -409 700 -674 960 -983 209
-249 298 -364 433 -566 191 -286 372 -542 653 -922 68 -92 151 -205 184 -250
33 -45 121 -159 195 -253 75 -93 221 -282 324 -420 104 -137 255 -335 335
-438 166 -214 490 -650 647 -870 l106 -148 54 2 c43 2 52 5 43 16 -14 16 -22
17 -14 1 4 -7 -2 -2 -13 12 -12 14 -19 26 -17 28 2 2 -72 99 -163 216 -92 117
-224 286 -294 377 -351 454 -690 887 -713 911 -18 19 -20 26 -9 21 12 -5 8 7
-14 40 -18 25 -32 55 -32 68 0 12 22 60 49 108 27 47 85 149 129 226 44 77
105 190 136 252 49 99 53 111 33 104 -15 -6 -26 -4 -35 8 -7 9 -11 11 -8 4 4
-6 2 -14 -3 -17 -5 -3 -14 -19 -19 -35 -9 -25 -8 -29 4 -24 8 3 14 8 14 12 0
4 7 8 14 8 18 0 30 24 -130 -263 -68 -122 -145 -256 -173 -298 l-49 -76 -29
33 c-15 18 -24 27 -19 20 5 -8 7 -16 4 -19 -10 -9 -318 384 -450 573 -26 37
-111 154 -188 258 -147 199 -188 260 -442 645 -220 334 -336 484 -568 738 -41
45 -75 85 -75 89 -2 39 -1101 1083 -1140 1083 -5 0 6 -15 25 -34z m1101 -1033
c13 -16 12 -17 -3 -4 -10 7 -18 15 -18 17 0 8 8 3 21 -13z m1820 -2418 c18
-23 8 -15 -25 20 -30 33 -55 65 -55 70 0 10 28 -21 80 -90z"/>
<path d="M1420 5117 c0 -2 43 -119 95 -260 52 -141 108 -311 125 -378 33 -129
48 -167 76 -190 16 -12 17 -12 9 1 -15 24 -53 160 -44 160 9 0 67 -138 76
-180 9 -50 27 -49 19 0 -6 41 -33 108 -152 389 -25 58 -42 111 -39 118 2 8 1
12 -4 9 -11 -7 -33 52 -25 65 3 5 1 9 -4 9 -8 0 -61 129 -92 223 -6 20 -18 37
-26 37 -8 0 -14 -2 -14 -3z m254 -646 c-6 -6 -11 1 -18 29 l-7 25 15 -25 c8
-14 12 -27 10 -29z"/>
<path d="M1782 5100 c0 -14 2 -19 5 -12 2 6 2 18 0 25 -3 6 -5 1 -5 -13z"/>
<path d="M1840 5104 c0 -10 9 -64 19 -119 11 -55 25 -152 31 -215 6 -63 15
-119 20 -125 6 -7 13 -65 16 -131 4 -65 14 -144 24 -174 19 -64 93 -241 98
-236 2 2 -15 57 -37 122 -57 169 -68 280 -52 534 13 197 7 360 -12 360 -6 0
-8 -26 -4 -72 7 -75 -11 -328 -23 -328 -4 0 -10 42 -13 93 -9 117 -67 373 -67
291z"/>
<path d="M2283 4983 c-63 -132 -82 -201 -57 -210 6 -2 27 43 49 104 21 59 51
138 66 176 49 119 10 72 -58 -70z"/>
<path d="M2470 5013 c-57 -136 -59 -143 -15 -60 44 83 77 167 67 167 -4 0 -28
-48 -52 -107z"/>
<path d="M2553 5078 c-67 -107 -168 -304 -212 -418 -83 -210 -86 -227 -86
-463 0 -114 -1 -203 -3 -198 -2 5 -7 53 -12 107 l-9 99 4 -104 c4 -97 54 -446
62 -437 2 2 -3 123 -12 268 -17 287 -13 366 26 523 42 163 104 275 287 515 53
69 100 131 105 138 7 9 -5 12 -57 12 l-66 0 -27 -42z"/>
<path d="M2936 5057 c-28 -34 -42 -56 -33 -48 27 22 100 111 90 111 -4 0 -30
-28 -57 -63z"/>
<path d="M3158 5103 c-19 -23 -31 -43 -24 -43 2 0 14 14 26 30 23 33 22 40 -2
13z"/>
<path d="M3409 5053 c-45 -98 -131 -310 -185 -454 -71 -191 -229 -656 -249
-734 -10 -41 -27 -78 -39 -89 -17 -15 -17 -18 -3 -13 19 7 19 6 -9 -167 -8
-49 -13 -91 -11 -93 4 -3 24 98 45 222 7 36 12 42 62 66 30 15 56 26 57 25 1
-1 -9 -34 -22 -73 -13 -39 -26 -86 -29 -105 -4 -25 -2 -23 10 12 53 156 66
180 97 194 39 16 436 247 491 286 118 81 264 267 377 478 84 157 210 382 251
450 21 35 32 62 25 62 -6 0 -63 -93 -126 -208 -277 -503 -298 -538 -410 -655
-92 -97 -144 -134 -376 -269 -208 -122 -245 -141 -252 -135 -14 15 268 672
453 1057 53 111 94 203 91 207 -18 17 -45 -31 -164 -298 -165 -370 -363 -840
-363 -863 0 -3 -9 -30 -21 -61 -19 -51 -25 -58 -80 -85 -32 -17 -59 -29 -59
-28 0 2 15 53 34 113 77 257 304 879 391 1076 64 144 66 149 55 149 -6 0 -25
-30 -41 -67z"/>
<path d="M4457 5038 c-25 -46 -68 -130 -97 -188 -67 -135 -124 -220 -197 -295
-54 -56 -160 -150 -229 -202 l-29 -23 27 10 c123 42 265 158 400 325 44 55
265 391 293 448 21 40 -46 -56 -154 -222 -68 -105 -126 -189 -128 -187 -11 11
87 218 148 311 l68 105 -29 0 c-25 0 -33 -9 -73 -82z"/>
<path d="M3114 4988 c-150 -153 -316 -364 -416 -526 -94 -152 -181 -368 -243
-607 -47 -174 -43 -192 5 -30 91 306 182 517 296 685 105 156 292 396 384 493
51 53 90 97 88 97 -2 0 -54 -51 -114 -112z"/>
<path d="M0 5063 c1 -10 41 -70 90 -133 50 -63 167 -220 262 -349 95 -129 211
-273 258 -321 47 -47 163 -148 258 -224 96 -77 223 -183 283 -238 60 -54 109
-94 109 -89 0 12 -220 211 -360 326 -154 127 -191 162 -247 237 -29 38 -53 73
-53 78 0 4 -39 47 -86 96 -72 75 -298 355 -463 577 -24 31 -45 57 -47 57 -2 0
-4 -8 -4 -17z"/>
<path d="M1792 5030 c0 -19 2 -27 5 -17 2 9 2 25 0 35 -3 9 -5 1 -5 -18z"/>
<path d="M5044 4998 c-278 -209 -463 -407 -545 -583 -30 -64 -101 -286 -94
-293 2 -2 15 36 30 84 14 49 33 105 43 124 46 92 340 350 564 495 l78 50 0 88
c0 48 -2 87 -4 87 -1 0 -34 -23 -72 -52z"/>
<path d="M1802 4970 c-1 -14 3 -43 7 -65 6 -26 9 -31 9 -15 1 14 -3 43 -7 65
-6 26 -9 31 -9 15z"/>
<path d="M1822 4840 c0 -14 3 -45 7 -70 6 -34 9 -37 9 -15 1 17 -3 48 -7 70
-6 25 -9 31 -9 15z"/>
<path d="M4507 4813 c-2 -4 -16 -29 -31 -55 -21 -36 -24 -48 -14 -54 7 -4 10
-4 7 0 -4 4 4 19 17 33 13 14 21 30 18 35 -3 5 0 16 7 24 6 8 9 17 6 20 -3 3
-7 2 -10 -3z"/>
<path d="M1861 4754 c0 -11 3 -14 6 -6 3 7 2 16 -1 19 -3 4 -6 -2 -5 -13z"/>
<path d="M1 4696 c-1 -66 -8 -55 156 -253 87 -106 257 -333 249 -333 -2 0 -28
30 -57 68 -44 56 -216 257 -321 376 l-27 31 -1 -48 c0 -47 0 -48 149 -210 82
-89 193 -202 247 -252 54 -49 148 -138 209 -197 86 -83 113 -104 126 -97 12 6
21 4 29 -6 32 -38 191 -176 165 -143 -16 21 -99 101 -185 180 -201 184 -334
319 -390 396 -25 34 -109 164 -187 290 -78 125 -147 234 -152 242 -7 11 -10
-2 -10 -44z m464 -646 c27 -27 47 -50 44 -50 -3 0 -27 23 -54 50 -27 28 -47
50 -44 50 3 0 27 -22 54 -50z m260 -240 c10 -11 16 -20 13 -20 -3 0 -13 9 -23
20 -10 11 -16 20 -13 20 3 0 13 -9 23 -20z"/>
<path d="M1843 4680 c0 -25 2 -35 4 -22 2 12 2 32 0 45 -2 12 -4 2 -4 -23z"/>
<path d="M1872 4675 c0 -16 2 -22 5 -12 2 9 2 23 0 30 -3 6 -5 -1 -5 -18z"/>
<path d="M4975 4529 c-342 -295 -459 -439 -589 -726 -35 -76 -82 -175 -105
-220 -22 -46 -39 -83 -37 -83 9 0 72 121 146 282 90 192 153 292 274 429 69
78 325 317 436 407 14 11 23 23 20 26 -3 3 -69 -49 -145 -115z"/>
<path d="M1886 4575 c6 -64 22 -143 22 -110 1 11 -5 54 -13 95 -13 73 -14 74
-9 15z"/>
<path d="M1852 4595 c0 -16 2 -22 5 -12 2 9 2 23 0 30 -3 6 -5 -1 -5 -18z"/>
<path d="M4351 4549 c-25 -38 -75 -103 -113 -146 -38 -43 -85 -106 -105 -141
-43 -77 -117 -242 -110 -248 2 -2 48 64 101 148 115 182 150 229 111 151 -14
-29 -23 -53 -20 -53 11 0 65 122 59 133 -4 7 -3 9 1 4 5 -4 35 43 68 104 32
61 57 112 55 113 -1 2 -23 -28 -47 -65z"/>
<path d="M480 4552 c18 -36 145 -166 240 -247 47 -39 153 -117 237 -173 183
-122 368 -270 518 -412 60 -58 180 -167 265 -241 365 -320 403 -403 273 -608
-96 -152 -148 -199 -338 -313 -122 -73 -440 -249 -669 -370 -142 -75 -286
-162 -286 -172 0 -3 39 19 88 48 48 29 150 86 227 126 446 232 748 409 835
488 77 69 143 155 192 249 48 94 52 170 13 250 -30 59 -168 196 -325 323 -58
47 -164 141 -235 210 -164 158 -337 296 -535 430 -170 114 -253 182 -409 334
-57 56 -98 91 -91 78z"/>
<path d="M1861 4534 c0 -11 3 -14 6 -6 3 7 2 16 -1 19 -3 4 -6 -2 -5 -13z"/>
<path d="M7 4448 c87 -111 407 -548 456 -623 126 -194 215 -384 238 -509 11
-56 10 -71 -5 -109 -15 -39 -52 -87 -59 -76 -1 2 -22 44 -47 93 -54 107 -145
246 -247 376 -98 126 -337 391 -341 380 -2 -5 50 -69 116 -142 214 -237 377
-458 458 -623 72 -146 59 -160 -487 -508 -50 -32 -89 -61 -86 -64 3 -3 18 4
34 15 15 11 70 45 121 76 69 41 90 51 81 35 -10 -19 -9 -20 13 -14 21 6 20 3
-8 -22 -17 -15 -47 -41 -65 -56 -19 -15 16 8 76 51 61 43 175 123 255 177 80
54 168 116 197 137 58 44 93 104 93 160 0 107 -146 420 -282 606 -79 107 -13
46 178 -165 328 -364 404 -468 404 -553 0 -67 -48 -107 -448 -369 -252 -165
-165 -87 143 130 140 98 221 173 231 212 6 27 -12 114 -22 104 -2 -2 0 -17 6
-32 28 -73 -9 -122 -185 -250 -204 -147 -405 -297 -405 -301 0 -3 5 -2 12 2 7
4 8 3 4 -5 -4 -6 -11 -9 -16 -6 -8 5 -134 -89 -352 -262 -38 -30 -68 -58 -68
-64 0 -14 12 -6 95 61 149 120 247 189 637 448 222 148 416 283 431 301 47 56
33 112 -54 228 -83 109 -167 200 -264 283 -49 43 -207 195 -351 337 -202 200
-286 291 -374 406 -62 81 -115 147 -118 147 -2 0 0 -6 5 -12z m493 -1822 c0
-2 -12 -12 -27 -21 l-28 -18 19 21 c17 20 36 29 36 18z"/>
<path d="M1911 4424 c0 -11 3 -14 6 -6 3 7 2 16 -1 19 -3 4 -6 -2 -5 -13z"/>
<path d="M5105 4432 c-13 -8 -200 -221 -306 -347 -98 -116 -193 -241 -267
-353 -63 -93 -202 -333 -202 -348 0 -5 27 36 61 91 201 331 398 588 657 857
42 43 72 83 70 92 -1 8 -8 12 -13 8z"/>
<path d="M4359 4022 c-42 -109 -43 -110 -30 -92 15 20 73 171 68 176 -2 2 -19
-35 -38 -84z"/>
<path d="M2061 4044 c0 -11 3 -14 6 -6 3 7 2 16 -1 19 -3 4 -6 -2 -5 -13z"/>
<path d="M4032 3932 c-147 -258 -444 -917 -575 -1277 -36 -99 -68 -193 -72
-210 -3 -16 12 17 33 75 81 221 358 821 516 1120 128 241 186 359 186 376 0 7
-6 14 -14 17 -9 4 -33 -29 -74 -101z"/>
<path d="M3635 3822 c-254 -250 -410 -366 -690 -514 -60 -31 -106 -58 -101
-58 20 0 266 135 371 204 60 40 151 106 200 148 81 68 397 378 385 378 -3 0
-77 -71 -165 -158z"/>
<path d="M4873 3743 c-250 -248 -417 -442 -526 -615 -35 -56 -8 -26 63 70 175
233 343 418 618 676 51 48 92 92 90 98 -2 5 -112 -97 -245 -229z"/>
<path d="M2441 3904 c0 -11 3 -14 6 -6 3 7 2 16 -1 19 -3 4 -6 -2 -5 -13z"/>
<path d="M4297 3875 c-24 -50 -20 -58 4 -12 11 22 19 41 17 43 -3 2 -12 -12
-21 -31z"/>
<path d="M2416 3814 c-4 -20 -5 -38 -3 -40 3 -3 8 11 11 32 4 20 5 38 3 40 -3
3 -8 -11 -11 -32z"/>
<path d="M4242 3755 c-17 -36 -30 -65 -27 -65 7 0 67 121 63 126 -2 2 -18 -26
-36 -61z"/>
<path d="M0 3761 c0 -13 45 -95 101 -183 169 -267 216 -383 190 -468 -13 -42
-47 -76 -198 -190 -90 -68 -93 -72 -93 -110 0 -22 2 -40 5 -40 8 0 261 174
307 212 94 77 111 166 54 283 -33 69 -155 247 -284 415 -86 111 -82 108 -82
81z"/>
<path d="M2402 3740 c0 -14 2 -19 5 -12 2 6 2 18 0 25 -3 6 -5 1 -5 -13z"/>
<path d="M2392 3675 c0 -16 2 -22 5 -12 2 9 2 23 0 30 -3 6 -5 -1 -5 -18z"/>
<path d="M2412 3670 c0 -14 2 -19 5 -12 2 6 2 18 0 25 -3 6 -5 1 -5 -13z"/>
<path d="M2280 3645 c0 -2 7 -8 15 -15 12 -10 15 -10 15 2 0 8 -7 15 -15 15
-8 0 -15 -1 -15 -2z"/>
<path d="M2382 3605 c0 -16 2 -22 5 -12 2 9 2 23 0 30 -3 6 -5 -1 -5 -18z"/>
<path d="M3012 3580 c0 -14 2 -19 5 -12 2 6 2 18 0 25 -3 6 -5 1 -5 -13z"/>
<path d="M2398 3490 c38 -52 133 -192 212 -310 79 -118 162 -240 185 -270 23
-30 77 -107 120 -170 43 -63 98 -137 122 -165 l43 -50 -41 75 c-92 166 -309
475 -365 519 l-23 18 22 21 c12 11 49 34 82 50 33 17 56 31 52 32 -4 0 -31
-12 -59 -26 l-51 -26 7 64 c3 34 9 77 11 93 5 25 4 27 -4 9 -5 -12 -15 -58
-21 -103 -7 -44 -18 -86 -26 -92 -17 -14 -20 -11 -129 151 -43 63 -93 134
-111 158 -18 24 -32 49 -30 55 1 7 1 9 -1 5 -2 -4 -18 7 -34 25 -17 18 1 -11
39 -63z"/>
<path d="M2901 3474 c0 -11 3 -14 6 -6 3 7 2 16 -1 19 -3 4 -6 -2 -5 -13z"/>
<path d="M1452 3349 c169 -163 180 -270 40 -386 -32 -26 -73 -61 -92 -76 l-35
-28 32 15 c17 9 65 43 107 76 117 93 140 160 90 265 -21 47 -109 136 -179 184
-43 29 -38 22 37 -50z"/>
<path d="M4285 3404 c22 -17 22 -18 0 -40 -16 -17 -21 -54 -6 -54 11 0 31 50
28 70 -4 23 -17 40 -30 40 -7 0 -3 -7 8 -16z"/>
<path d="M4022 3350 c-60 -43 -142 -165 -230 -340 -76 -152 -187 -408 -180
-416 2 -2 21 38 42 89 92 222 276 535 363 619 21 21 56 46 78 57 l40 20 -36 1
c-24 0 -49 -9 -77 -30z"/>
<path d="M4594 3247 c-33 -34 -93 -114 -135 -177 -77 -117 -155 -250 -146
-250 3 0 22 30 43 67 61 110 188 294 249 361 31 34 55 62 52 62 -3 0 -31 -28
-63 -63z"/>
<path d="M4247 3257 c-12 -19 -22 -23 -46 -19 -20 3 -31 10 -31 21 -1 9 -12
-11 -25 -43 -20 -47 -22 -62 -13 -74 7 -8 19 -30 28 -49 l15 -35 47 108 c47
107 55 137 25 91z"/>
<path d="M4998 3130 c-148 -171 -164 -192 -283 -380 -55 -85 -140 -209 -190
-275 -92 -122 -146 -198 -128 -180 5 6 71 78 145 160 74 83 190 211 258 285
68 74 168 185 222 247 l99 112 -3 83 -3 83 -117 -135z"/>
<path d="M3596 3185 c-9 -26 -7 -32 5 -12 6 10 9 21 6 23 -2 3 -7 -2 -11 -11z"/>
<path d="M3772 3104 c-18 -35 -32 -68 -32 -72 1 -4 17 24 36 62 19 37 34 70
32 72 -2 2 -18 -26 -36 -62z"/>
<path d="M1720 3106 c-12 -33 -29 -48 -229 -199 -380 -288 -632 -490 -715
-572 -17 -17 -113 -125 -212 -240 -401 -464 -564 -660 -564 -677 0 -11 35 22
90 86 50 58 147 170 218 249 70 79 182 206 248 283 248 283 452 469 914 829
223 174 243 192 259 238 12 33 4 36 -9 3z"/>
<path d="M3516 2985 c-9 -26 -7 -32 5 -12 6 10 9 21 6 23 -2 3 -7 -2 -11 -11z"/>
<path d="M3707 2969 c-8 -19 -39 -83 -67 -144 -52 -107 -130 -314 -130 -338 1
-7 23 47 49 118 26 72 76 188 110 259 33 71 59 131 57 134 -3 2 -11 -11 -19
-29z"/>
<path d="M2025 2964 c-9 -15 -12 -23 -6 -20 11 7 35 46 28 46 -3 0 -12 -12
-22 -26z"/>
<path d="M4040 2939 c0 -5 -4 -8 -9 -5 -5 3 -12 -4 -15 -17 -23 -80 -80 -315
-106 -437 -41 -190 -72 -300 -109 -385 -29 -69 -119 -240 -147 -279 -8 -11
-14 -25 -14 -31 0 -17 50 63 110 178 64 122 100 210 195 482 35 99 81 226 104
283 l41 103 -25 43 c-14 25 -23 50 -19 60 3 9 3 16 0 16 -3 0 -6 -5 -6 -11z"/>
<path d="M1920 2844 c-119 -120 -212 -184 -720 -498 -25 -15 -36 -25 -25 -22
62 21 571 350 660 428 51 44 182 178 174 178 -3 0 -43 -39 -89 -86z"/>
<path d="M3481 2889 c-6 -18 -9 -34 -7 -36 2 -2 9 10 15 28 6 18 9 34 7 36 -2
2 -9 -10 -15 -28z"/>
<path d="M3406 2668 c-60 -192 -79 -259 -73 -264 2 -2 21 53 41 123 21 71 48
161 62 202 13 41 22 76 20 79 -3 2 -25 -61 -50 -140z"/>
<path d="M4284 2778 c-9 -18 -20 -35 -23 -38 -11 -8 -41 -54 -41 -62 0 -26 25
2 55 62 19 39 33 70 30 70 -2 0 -12 -15 -21 -32z"/>
<path d="M2531 2738 c-24 -11 -52 -35 -62 -52 -20 -33 -25 -61 -9 -51 6 3 10
14 10 24 0 22 33 52 85 79 53 28 32 28 -24 0z"/>
<path d="M5099 2713 c-13 -16 -12 -17 4 -4 16 13 21 21 13 21 -2 0 -10 -8 -17
-17z"/>
<path d="M2312 2648 c-55 -66 -192 -198 -266 -253 -23 -19 -76 -54 -117 -79
-41 -25 -92 -62 -114 -81 l-40 -36 44 30 c24 17 50 31 56 31 7 0 23 -24 35
-52 106 -247 467 -972 549 -1102 95 -151 131 -228 131 -280 0 -63 -30 -138
-107 -263 -69 -114 -207 -381 -218 -423 -4 -14 31 49 77 140 47 91 111 208
143 260 32 52 78 136 102 185 62 126 60 135 -60 316 -123 186 -148 233 -317
604 -77 170 -146 313 -153 317 -6 4 -7 8 -2 8 6 0 5 3 -1 8 -10 6 -113 229
-128 277 -5 17 8 29 77 75 49 32 137 108 220 189 l137 136 0 -175 c0 -202 14
-302 65 -480 52 -177 272 -717 378 -925 43 -85 105 -241 126 -318 12 -40 26
-134 32 -208 10 -132 41 -345 55 -384 11 -32 -64 44 -86 85 -27 53 -166 380
-178 420 -6 19 -14 56 -17 81 -6 43 -5 47 29 77 20 18 42 32 48 32 6 0 9 2 6
5 -8 9 -62 -14 -76 -33 -12 -15 -13 -12 -7 21 5 23 3 37 -3 37 -6 0 -16 -17
-22 -37 -17 -53 -121 -241 -273 -493 -126 -209 -187 -322 -187 -347 0 -19 47
-16 54 3 3 9 6 29 6 45 0 45 19 84 159 318 70 119 152 258 182 308 40 68 56
88 60 75 4 -9 14 -44 24 -77 9 -33 55 -147 100 -252 71 -163 92 -202 137 -252
29 -33 56 -55 59 -50 7 12 54 -39 88 -94 12 -20 25 -37 27 -37 11 0 -29 60
-74 112 -49 55 -50 57 -66 165 -9 59 -23 180 -31 268 -19 195 -47 283 -169
548 -206 448 -336 775 -386 972 -41 160 -54 292 -47 483 3 89 2 162 -2 162 -4
0 -31 -28 -59 -62z"/>
<path d="M5049 2673 l-24 -28 28 24 c25 23 32 31 24 31 -2 0 -14 -12 -28 -27z"/>
<path d="M4950 2599 c-80 -62 -101 -83 -38 -39 51 35 116 89 108 89 -3 0 -34
-23 -70 -50z"/>
<path d="M2442 2600 c0 -14 2 -19 5 -12 2 6 2 18 0 25 -3 6 -5 1 -5 -13z"/>
<path d="M2484 2579 c-13 -41 -7 -288 10 -404 27 -177 98 -388 248 -730 87
-198 117 -274 193 -485 75 -211 178 -471 183 -465 2 2 -33 99 -78 216 -44 117
-99 263 -120 323 -42 122 -110 292 -160 401 -63 138 -180 444 -210 551 -17 60
-37 160 -45 222 -16 123 -20 372 -6 372 15 0 140 -139 200 -221 122 -170 162
-230 245 -369 47 -79 86 -140 86 -136 0 16 -126 226 -208 346 -111 163 -196
271 -270 344 -58 56 -60 58 -68 35z"/>
<path d="M4165 2550 c-14 -27 -23 -50 -20 -50 2 0 16 23 30 50 14 28 23 50 20
50 -2 0 -16 -22 -30 -50z"/>
<path d="M2433 2535 c0 -22 2 -30 4 -17 2 12 2 30 0 40 -3 9 -5 -1 -4 -23z"/>
<path d="M3586 2535 c-9 -26 -7 -32 5 -12 6 10 9 21 6 23 -2 3 -7 -2 -11 -11z"/>
<path d="M4839 2513 c-13 -16 -12 -17 4 -4 16 13 21 21 13 21 -2 0 -10 -8 -17
-17z"/>
<path d="M4799 2483 c-13 -16 -12 -17 4 -4 16 13 21 21 13 21 -2 0 -10 -8 -17
-17z"/>
<path d="M2423 2415 c0 -44 2 -61 4 -37 2 23 2 59 0 80 -2 20 -4 1 -4 -43z"/>
<path d="M4059 2483 c-1 -5 -1 -11 0 -15 0 -5 -3 -8 -9 -8 -5 0 -10 -5 -10
-11 0 -5 6 -7 13 -4 6 4 3 -1 -7 -9 -11 -9 -14 -16 -7 -16 7 0 9 -4 6 -10 -4
-6 6 -10 23 -10 18 0 32 6 36 16 3 8 2 13 -3 10 -10 -7 -33 49 -24 58 4 3 1 6
-5 6 -7 0 -13 -3 -13 -7z"/>
<path d="M3496 2444 c-4 -14 -5 -28 -3 -31 3 -2 8 8 11 23 4 14 5 28 3 31 -3
2 -8 -8 -11 -23z"/>
<path d="M4695 2410 c-44 -33 -129 -89 -190 -127 -170 -106 -515 -367 -501
-380 5 -5 283 181 441 296 132 96 359 280 333 270 -2 0 -39 -27 -83 -59z"/>
<path d="M3421 2444 c0 -11 3 -14 6 -6 3 7 2 16 -1 19 -3 4 -6 -2 -5 -13z"/>
<path d="M4952 2289 c-115 -107 -178 -173 -214 -227 -99 -148 -156 -199 -323
-292 -33 -18 -78 -48 -101 -66 -22 -18 -66 -48 -98 -67 -42 -25 -53 -36 -41
-41 9 -3 14 -2 11 3 -7 10 12 20 163 80 69 28 160 71 203 96 43 25 84 43 91
39 7 -4 9 -4 5 0 -4 5 26 30 65 57 136 92 402 304 405 322 2 11 -62 -34 -165
-115 -92 -74 -193 -152 -223 -174 -121 -88 -108 -72 63 81 78 70 184 168 235
217 l92 88 0 75 c0 41 -1 75 -2 75 -2 0 -76 -68 -166 -151z"/>
<path d="M3411 2404 c0 -11 3 -14 6 -6 3 7 2 16 -1 19 -3 4 -6 -2 -5 -13z"/>
<path d="M3476 2364 c-4 -20 -5 -38 -3 -40 3 -3 8 11 11 32 4 20 5 38 3 40 -3
3 -8 -11 -11 -32z"/>
<path d="M3321 2374 c0 -11 3 -14 6 -6 3 7 2 16 -1 19 -3 4 -6 -2 -5 -13z"/>
<path d="M3356 2354 c-4 -14 -5 -28 -3 -31 3 -2 8 8 11 23 4 14 5 28 3 31 -3
2 -8 -8 -11 -23z"/>
<path d="M3401 2364 c0 -11 3 -14 6 -6 3 7 2 16 -1 19 -3 4 -6 -2 -5 -13z"/>
<path d="M3197 2315 c17 -22 44 -51 59 -65 18 -16 13 -7 -14 26 -50 62 -89 95
-45 39z"/>
<path d="M3305 2306 c-4 -24 -3 -51 1 -59 6 -10 9 6 10 44 1 32 0 59 -2 59 -1
0 -6 -20 -9 -44z"/>
<path d="M3392 2315 c0 -16 2 -22 5 -12 2 9 2 23 0 30 -3 6 -5 -1 -5 -18z"/>
<path d="M3341 2294 c0 -11 3 -14 6 -6 3 7 2 16 -1 19 -3 4 -6 -2 -5 -13z"/>
<path d="M1775 2286 c-11 -8 -92 -61 -180 -119 -309 -202 -579 -419 -906 -730
-96 -90 -244 -220 -329 -289 -280 -224 -360 -291 -360 -300 0 -8 136 100 280
222 101 85 241 192 246 188 5 -6 -241 -224 -408 -362 -65 -54 -118 -100 -118
-103 0 -5 38 26 195 157 149 124 357 312 352 317 -3 2 29 35 71 72 43 38 156
141 252 231 304 283 452 402 748 598 100 67 182 124 182 127 0 7 -2 6 -25 -9z"/>
<path d="M2432 2280 c0 -14 2 -19 5 -12 2 6 2 18 0 25 -3 6 -5 1 -5 -13z"/>
<path d="M3382 2260 c0 -14 2 -19 5 -12 2 6 2 18 0 25 -3 6 -5 1 -5 -13z"/>
<path d="M3332 2250 c0 -14 2 -19 5 -12 2 6 2 18 0 25 -3 6 -5 1 -5 -13z"/>
<path d="M3432 2205 c0 -16 2 -22 5 -12 2 9 2 23 0 30 -3 6 -5 -1 -5 -18z"/>
<path d="M966 2125 c-234 -131 -372 -226 -501 -342 -114 -103 -457 -455 -464
-476 -2 -7 106 99 240 234 134 135 278 273 319 306 104 83 260 185 425 278
130 73 166 95 154 95 -2 0 -80 -43 -173 -95z"/>
<path d="M3373 2185 c0 -22 2 -30 4 -17 2 12 2 30 0 40 -3 9 -5 -1 -4 -23z"/>
<path d="M3102 2078 c-29 -29 -2 -111 93 -280 75 -133 182 -300 203 -315 22
-18 52 -16 52 2 0 9 -39 80 -86 158 -90 150 -179 324 -190 370 -13 56 41 19
146 -103 12 -14 7 -3 -11 23 -18 26 -59 72 -90 102 -58 55 -92 68 -117 43z"/>
<path d="M4064 2048 l-29 -33 33 29 c30 28 37 36 29 36 -2 0 -16 -15 -33 -32z"/>
<path d="M4509 2013 c-13 -16 -12 -17 4 -4 9 7 17 15 17 17 0 8 -8 3 -21 -13z"/>
<path d="M4440 1969 c-101 -67 -238 -122 -398 -159 -29 -7 -51 -14 -49 -16 8
-8 196 28 261 51 69 24 185 95 221 135 24 26 19 25 -35 -11z"/>
<path d="M3955 1928 l-60 -63 63 60 c58 55 67 65 59 65 -1 0 -29 -28 -62 -62z"/>
<path d="M1349 1851 c-53 -49 -118 -101 -145 -117 -131 -75 -362 -265 -543
-445 -68 -68 -234 -245 -369 -394 -135 -148 -257 -282 -271 -297 -13 -16 -22
-28 -19 -28 3 0 113 118 244 263 315 347 559 590 723 721 74 58 139 106 143
106 5 0 -74 -82 -175 -182 -157 -156 -622 -665 -589 -644 6 4 111 118 234 254
241 267 396 427 498 512 l65 55 -84 -95 c-86 -98 -146 -178 -139 -186 2 -2 23
22 45 54 54 76 266 305 389 419 54 51 97 92 94 92 -3 0 -48 -40 -101 -88z
m-184 -181 c-9 -10 -24 -16 -32 -13 -13 5 -11 9 8 24 29 22 46 14 24 -11z"/>
<path d="M1149 1673 c-13 -16 -12 -17 4 -4 16 13 21 21 13 21 -2 0 -10 -8 -17
-17z"/>
<path d="M5053 1872 c-34 -26 -118 -95 -187 -153 -70 -59 -178 -142 -241 -185
-215 -147 -396 -285 -416 -317 -26 -44 -24 -75 11 -130 34 -55 52 -64 21 -11
-12 20 -21 52 -21 75 0 33 7 46 43 82 51 51 248 189 600 421 l257 169 0 49 c0
26 -1 48 -2 48 -2 0 -31 -22 -65 -48z"/>
<path d="M3055 1875 c11 -16 59 -106 108 -200 154 -292 315 -550 703 -1125
109 -163 237 -353 284 -423 54 -80 91 -127 103 -127 9 0 17 3 17 6 0 6 -125
192 -435 644 -359 524 -509 760 -656 1029 -50 91 -102 180 -116 196 l-26 30
18 -30z"/>
<path d="M3312 1864 c17 -19 545 -810 676 -1012 40 -61 75 -112 78 -112 17 0
-129 230 -405 640 -225 335 -330 482 -354 496 -6 4 -5 -1 5 -12z"/>
<path d="M1604 1848 l-19 -23 23 19 c21 18 27 26 19 26 -2 0 -12 -10 -23 -22z"/>
<path d="M1896 1833 c-6 -14 -5 -15 5 -6 7 7 10 15 7 18 -3 3 -9 -2 -12 -12z"/>
<path d="M3380 1836 c0 -2 8 -10 18 -17 15 -13 16 -12 3 4 -13 16 -21 21 -21
13z"/>
<path d="M1564 1798 l-19 -23 23 19 c21 18 27 26 19 26 -2 0 -12 -10 -23 -22z"/>
<path d="M1905 1809 c-4 -6 -5 -12 -2 -15 2 -3 7 2 10 11 7 17 1 20 -8 4z"/>
<path d="M3839 1803 c-13 -16 -12 -17 4 -4 9 7 17 15 17 17 0 8 -8 3 -21 -13z"/>
<path d="M3430 1770 c12 -16 24 -30 26 -30 3 0 -4 14 -16 30 -12 17 -24 30
-26 30 -3 0 4 -13 16 -30z"/>
<path d="M1926 1765 c-4 -11 -2 -14 6 -9 8 5 9 2 5 -10 -4 -11 -3 -15 4 -10 8
4 9 -1 4 -17 -4 -17 -3 -20 3 -10 8 11 13 7 26 -18 9 -17 19 -31 22 -31 4 0
-47 98 -61 118 -2 2 -5 -4 -9 -13z"/>
<path d="M5080 1755 c-19 -13 -120 -78 -225 -145 -203 -131 -452 -301 -524
-358 -50 -40 -74 -89 -65 -130 10 -41 69 -155 98 -189 14 -17 26 -38 26 -46 0
-8 10 -22 23 -31 12 -9 16 -14 9 -10 -11 5 -12 2 -3 -15 7 -11 14 -21 17 -21
3 0 2 5 -2 12 -4 7 -3 8 5 4 6 -4 9 -12 5 -17 -11 -18 137 -230 316 -453 52
-65 130 -164 173 -220 91 -117 114 -142 123 -133 4 3 -11 28 -33 54 -22 26
-66 85 -98 130 -32 45 -62 80 -66 77 -11 -7 -310 387 -364 480 l-18 31 24 -20
24 -20 -21 25 c-25 29 -130 203 -167 276 -64 127 -43 171 148 309 81 58 96 66
75 39 -14 -19 -14 -19 7 0 13 10 20 22 18 27 -3 4 32 32 77 62 171 112 287
186 318 202 30 16 32 16 26 -2 -18 -63 -46 -186 -43 -190 3 -2 17 46 32 106
21 87 32 113 50 125 22 15 24 14 28 -7 4 -19 4 -19 6 4 0 15 11 33 24 42 12 8
20 17 17 20 -3 2 -21 -6 -40 -18z"/>
<path d="M1524 1748 l-19 -23 23 19 c21 18 27 26 19 26 -2 0 -12 -10 -23 -22z"/>
<path d="M3478 1700 c30 -49 233 -330 239 -330 5 0 2 4 -145 210 -109 151
-130 179 -94 120z"/>
<path d="M3865 1718 c-41 -22 -65 -52 -65 -80 0 -29 30 -68 52 -68 7 0 2 7
-10 16 -48 33 -8 114 63 127 42 8 97 -13 112 -43 13 -25 13 -25 13 -2 0 47
-110 81 -165 50z"/>
<path d="M4494 1714 c-18 -14 -18 -15 4 -4 12 6 22 13 22 15 0 8 -5 6 -26 -11z"/>
<path d="M1440 1640 c-33 -44 -59 -80 -56 -80 3 0 33 36 66 80 33 44 59 80 56
80 -3 0 -33 -36 -66 -80z"/>
<path d="M5061 1664 c0 -11 3 -14 6 -6 3 7 2 16 -1 19 -3 4 -6 -2 -5 -13z"/>
<path d="M2010 1630 c6 -11 13 -20 16 -20 2 0 0 9 -6 20 -6 11 -13 20 -16 20
-2 0 0 -9 6 -20z"/>
<path d="M5051 1624 c0 -11 3 -14 6 -6 3 7 2 16 -1 19 -3 4 -6 -2 -5 -13z"/>
<path d="M4025 1569 c-51 -13 -58 -16 -25 -12 46 6 136 31 110 31 -8 0 -46 -9
-85 -19z"/>
<path d="M2011 1565 c0 -5 6 -21 14 -35 8 -14 14 -20 14 -15 0 6 -6 21 -14 35
-8 14 -14 21 -14 15z"/>
<path d="M5026 1544 c-4 -14 -5 -28 -3 -31 3 -2 8 8 11 23 4 14 5 28 3 31 -3
2 -8 -8 -11 -23z"/>
<path d="M3807 1549 c7 -7 15 -10 18 -7 3 3 -2 9 -12 12 -14 6 -15 5 -6 -5z"/>
<path d="M1354 1528 l-19 -23 23 19 c21 18 27 26 19 26 -2 0 -12 -10 -23 -22z"/>
<path d="M3918 1543 c7 -3 16 -2 19 1 4 3 -2 6 -13 5 -11 0 -14 -3 -6 -6z"/>
<path d="M3858 1533 c6 -2 18 -2 25 0 6 3 1 5 -13 5 -14 0 -19 -2 -12 -5z"/>
<path d="M4018 1503 c10 -4 8 -9 -5 -19 -14 -12 -11 -11 15 1 17 8 32 17 32
18 0 1 -12 3 -28 3 -15 1 -21 -1 -14 -3z"/>
<path d="M1314 1475 c-9 -14 -15 -27 -13 -30 3 -2 12 10 21 26 21 36 15 39 -8
4z"/>
<path d="M2040 1495 c0 -5 5 -17 10 -25 5 -8 10 -10 10 -5 0 6 -5 17 -10 25
-5 8 -10 11 -10 5z"/>
<path d="M4941 1414 c-7 -30 -11 -57 -8 -60 2 -2 9 21 16 52 7 30 11 57 8 60
-2 2 -9 -21 -16 -52z"/>
<path d="M4996 1444 c-4 -14 -5 -28 -3 -31 3 -2 8 8 11 23 4 14 5 28 3 31 -3
2 -8 -8 -11 -23z"/>
<path d="M3058 1385 c101 -166 214 -387 227 -443 13 -57 50 -152 59 -152 2 0
-4 23 -15 50 -10 28 -19 58 -19 68 1 25 70 -113 160 -322 72 -167 116 -263
229 -499 23 -48 46 -87 51 -87 5 0 -27 73 -70 163 -43 89 -124 268 -180 397
-114 261 -153 341 -264 544 -105 191 -165 291 -198 329 -19 21 -12 5 20 -48z"/>
<path d="M2066 1430 c3 -14 11 -32 16 -40 6 -10 7 -7 2 10 -3 14 -11 32 -16
40 -6 10 -7 7 -2 -10z"/>
<path d="M1232 1268 c-235 -349 -530 -838 -587 -973 -27 -67 -6 -34 60 93 105
199 422 714 580 942 59 85 68 100 62 100 -3 0 -54 -73 -115 -162z"/>
<path d="M4981 1384 c0 -11 3 -14 6 -6 3 7 2 16 -1 19 -3 4 -6 -2 -5 -13z"/>
<path d="M3560 1387 c0 -13 391 -671 577 -972 98 -160 196 -318 217 -353 20
-34 44 -62 52 -62 8 0 14 3 14 6 0 13 -183 316 -392 646 -65 102 -188 303
-274 445 -139 230 -194 313 -194 290z"/>
<path d="M1939 1306 c-105 -98 -146 -144 -222 -257 -35 -52 -107 -159 -161
-239 -94 -140 -110 -157 -434 -477 -185 -183 -330 -332 -322 -332 8 -1 116 96
240 215 124 119 280 266 347 326 100 90 129 123 162 182 22 40 55 93 75 118
19 25 65 97 103 159 53 88 94 141 182 232 63 64 120 117 127 117 14 0 89 -142
98 -185 3 -16 8 -64 11 -104 3 -41 7 -77 10 -79 2 -2 17 15 34 38 l31 42 -62
117 c-92 176 -108 201 -123 201 -8 0 -51 -33 -96 -74z"/>
<path d="M2090 1365 c0 -5 5 -17 10 -25 5 -8 10 -10 10 -5 0 6 -5 17 -10 25
-5 8 -10 11 -10 5z"/>
<path d="M4971 1344 c0 -11 3 -14 6 -6 3 7 2 16 -1 19 -3 4 -6 -2 -5 -13z"/>
<path d="M1746 1173 c-94 -97 -361 -366 -592 -597 -232 -232 -427 -432 -434
-446 -17 -32 10 -9 260 228 417 394 680 664 736 754 14 24 69 87 122 141 53
53 93 97 88 97 -4 0 -85 -80 -180 -177z"/>
<path d="M4474 1308 l-29 -33 33 29 c17 17 32 31 32 33 0 8 -8 1 -36 -29z"/>
<path d="M4921 1324 c0 -11 3 -14 6 -6 3 7 2 16 -1 19 -3 4 -6 -2 -5 -13z"/>
<path d="M2110 1315 c0 -5 5 -17 10 -25 5 -8 10 -10 10 -5 0 6 -5 17 -10 25
-5 8 -10 11 -10 5z"/>
<path d="M4962 1300 c0 -14 2 -19 5 -12 2 6 2 18 0 25 -3 6 -5 1 -5 -13z"/>
<path d="M4901 1244 c-7 -30 -11 -57 -8 -60 2 -2 9 21 16 52 7 30 11 57 8 60
-2 2 -9 -21 -16 -52z"/>
<path d="M906 1265 c-28 -30 -198 -295 -276 -430 -69 -118 -139 -259 -188
-376 -63 -148 -58 -155 12 -19 36 69 65 122 65 119 1 -6 -102 -230 -202 -441
-37 -78 -52 -118 -43 -118 17 0 136 239 260 523 87 200 215 440 322 607 80
125 106 196 50 135z"/>
<path d="M4951 1254 c0 -11 3 -14 6 -6 3 7 2 16 -1 19 -3 4 -6 -2 -5 -13z"/>
<path d="M3803 1235 c3 -5 42 -71 87 -145 46 -74 116 -190 157 -257 41 -67 79
-126 85 -129 7 -4 3 8 -9 27 -136 225 -303 491 -316 504 -7 7 -8 7 -4 0z"/>
<path d="M4862 1063 c-34 -171 -44 -277 -35 -372 8 -85 8 -84 14 84 4 112 14
207 28 279 12 59 20 110 18 112 -2 3 -14 -44 -25 -103z"/>
<path d="M2350 1096 c0 -2 8 -10 18 -17 15 -13 16 -12 3 4 -13 16 -21 21 -21
13z"/>
<path d="M2380 1056 c0 -2 8 -10 18 -17 15 -13 16 -12 3 4 -13 16 -21 21 -21
13z"/>
<path d="M2221 1045 c0 -5 6 -21 14 -35 8 -14 14 -20 14 -15 0 6 -6 21 -14 35
-8 14 -14 21 -14 15z"/>
<path d="M2310 1040 c8 -5 20 -10 25 -10 6 0 3 5 -5 10 -8 5 -19 10 -25 10 -5
0 -3 -5 5 -10z"/>
<path d="M3990 1035 c0 -5 5 -17 10 -25 5 -8 10 -10 10 -5 0 6 -5 17 -10 25
-5 8 -10 11 -10 5z"/>
<path d="M3140 1015 c0 -19 100 -274 132 -340 83 -163 377 -675 389 -675 4 0
-21 51 -58 112 -279 476 -370 654 -432 841 -20 58 -31 81 -31 62z"/>
<path d="M2250 975 c0 -5 5 -17 10 -25 5 -8 10 -10 10 -5 0 6 -5 17 -10 25 -5
8 -10 11 -10 5z"/>
<path d="M4260 966 c0 -2 8 -10 18 -17 15 -13 16 -12 3 4 -13 16 -21 21 -21
13z"/>
<path d="M2275 913 c11 -29 73 -260 100 -373 14 -58 22 -83 19 -55 -11 89
-107 445 -120 445 -4 0 -3 -8 1 -17z"/>
<path d="M1838 863 c-47 -64 -90 -151 -117 -242 l-23 -75 -271 -273 -271 -273
41 0 c40 0 46 5 220 182 324 331 466 482 521 558 31 41 74 97 96 125 23 27 -6
3 -64 -54 -58 -57 -135 -130 -172 -163 l-67 -59 11 38 c16 61 57 153 92 207
44 70 48 76 44 76 -2 0 -20 -21 -40 -47z"/>
<path d="M4125 880 c9 -16 18 -30 21 -30 2 0 -2 14 -11 30 -9 17 -18 30 -21
30 -2 0 2 -13 11 -30z"/>
<path d="M4100 810 c6 -11 13 -20 16 -20 2 0 0 9 -6 20 -6 11 -13 20 -16 20
-2 0 0 -9 6 -20z"/>
<path d="M4170 800 c6 -11 13 -20 16 -20 2 0 0 9 -6 20 -6 11 -13 20 -16 20
-2 0 0 -9 6 -20z"/>
<path d="M2094 776 c-10 -13 -48 -57 -84 -98 -143 -162 -377 -438 -471 -555
l-100 -123 54 0 54 0 48 72 c27 40 135 188 240 328 227 303 289 389 283 395
-2 3 -13 -6 -24 -19z"/>
<path d="M4215 720 c9 -16 18 -30 21 -30 2 0 -2 14 -11 30 -9 17 -18 30 -21
30 -2 0 2 -13 11 -30z"/>
<path d="M4530 716 c0 -2 8 -10 18 -17 15 -13 16 -12 3 4 -13 16 -21 21 -21
13z"/>
<path d="M4590 636 c0 -2 8 -10 18 -17 15 -13 16 -12 3 4 -13 16 -21 21 -21
13z"/>
<path d="M4247 570 c12 -19 81 -136 155 -260 74 -124 145 -244 158 -267 21
-38 50 -58 50 -35 0 14 -151 260 -259 422 -101 151 -145 211 -104 140z"/>
<path d="M4842 575 c0 -16 2 -22 5 -12 2 9 2 23 0 30 -3 6 -5 -1 -5 -18z"/>
<path d="M4420 565 c0 -10 122 -209 235 -382 115 -176 121 -183 152 -183 18 0
33 3 33 6 0 10 -214 317 -291 419 -93 122 -129 161 -129 140z"/>
<path d="M4851 524 c0 -11 3 -14 6 -6 3 7 2 16 -1 19 -3 4 -6 -2 -5 -13z"/>
<path d="M1210 225 c-124 -124 -218 -225 -209 -225 8 0 74 60 145 132 128 132
300 318 292 318 -2 0 -104 -101 -228 -225z"/>
<path d="M4810 336 c0 -2 8 -10 18 -17 15 -13 16 -12 3 4 -13 16 -21 21 -21
13z"/>
<path d="M2120 140 c-6 -11 -8 -20 -6 -20 3 0 10 9 16 20 6 11 8 20 6 20 -3 0
-10 -9 -16 -20z"/>
<path d="M2916 125 c-43 -22 -150 -119 -137 -123 6 -2 35 18 64 43 28 26 66
54 84 63 29 14 34 13 70 -5 28 -15 42 -31 55 -64 14 -37 17 -40 17 -18 1 27
-25 99 -35 99 -3 0 -3 -4 0 -9 3 -5 -11 0 -31 10 -45 23 -50 23 -87 4z"/>
<path d="M2090 90 c-6 -11 -8 -20 -6 -20 3 0 10 9 16 20 6 11 8 20 6 20 -3 0
-10 -9 -16 -20z"/>
<path d="M2232 59 c-12 -29 -20 -54 -18 -56 6 -7 48 86 44 98 -2 6 -13 -13
-26 -42z"/>
<path d="M4600 60 c11 -22 23 -40 25 -40 3 0 -4 18 -15 40 -11 22 -23 40 -25
40 -3 0 4 -18 15 -40z"/>
<path d="M3341 48 c-30 -23 -49 -44 -43 -46 12 -4 80 49 95 75 12 19 8 17 -52
-29z"/>
<path d="M2967 60 c6 -8 13 -26 16 -40 l4 -25 2 26 c0 15 -7 33 -16 40 -16 12
-17 12 -6 -1z"/>
</g>
</svg>
